<?xml version="1.0" encoding="utf-8"?>
<!-- Generator: Adobe Illustrator 25.0.1, SVG Export Plug-In . SVG Version: 6.00 Build 0)  -->
<svg version="1.0" id="Layer_1" xmlns="http://www.w3.org/2000/svg" xmlns:xlink="http://www.w3.org/1999/xlink" x="0px" y="0px"
	 width="100px" height="100px" viewBox="0 0 100 100" enable-background="new 0 0 100 100" xml:space="preserve">
<g>
	<path fill="#FFFFFF" d="M51.9,79.4c-0.1-0.8,0.1-1.6-0.1-2.4c-0.2-0.7-0.7-0.7-1-1.3c-0.9-1.4-1.7-3.3-1.8-5
		c-0.1-1.5-0.7-3-0.7-4.5c-0.1-0.7,0.1-1.5,0-2.3c0-0.3-0.1-0.7-0.1-1.1c0-0.1-0.1-0.5-0.1-0.7l0.2-0.5c-0.1-0.1,1.7-0.1,2.2-0.1
		c0.9,0,1.7,0.1,2.6,0.1c1.8,0.1,3.5,0.1,5.2-0.2c3.9-0.6,5.7-2.2,6.6-2.9c3.6-2.6,5.2-6.8,5.2-6.8c0.6-1.3,0.6-3.7,1.9-4.7
		c1.5-1.3,4-1.1,5.7-1.9c1-0.5,1.7-0.7,2.7-0.5c0.7,0.1,2.1,1.1,2.5-0.2c-0.3-0.1-0.3-0.5-0.5-0.6c1.4-0.1,0-3.4-0.5-4.1
		c-0.9-1-2.3-1.5-3.9-1.9c-1.8-0.5-3.5-1.1-5.2-0.7c-3,0.6-2.8-1.1-4.5-1.1c-2.1,0-5.9,0.1-6.5,2.1c-0.3,0.9-0.6,1-1.1,1.7
		c-0.5,0.6,0.1,1.2-0.1,1.9c-0.3,0.7-0.6,3.3-0.9,4.3c-0.6,1.5-1.3,3.5-2.7,3.5c-1.9,0.2-3.3,0.3-4.9-0.3c-0.9-0.3-2.5-0.9-3.2-1.1
		c-3.5-1.5-4.1-3.1-4.1-3.1c-0.4-0.6-1.3-1.6-1.7-2.9c-0.4-1.4-1.1-2.6-1.3-3.4s-1-2-1.5-3.3c-0.7-1.7-1.7-3-2.4-3.6
		c-1.1-0.9-2.1-2.5-4.3-2c-0.4,0.1-1.8,0.1-2.9,1.1c-0.7,0.6-1,1.9-1.7,3c-0.4,0.6-1.1,2.4-1.7,3.9c-0.5,1.1-0.7,1.8-1.1,2.2
		c-0.4,0.3-0.9,0.7-1.4,0.5c-0.3-0.1-0.7-0.3-1.1-0.7c-0.5-0.4-1.7-2.4-2.4-3.8c-0.6-1.3-1.9-3.1-2.7-4.2c-1.1-1.5-1.7-1.9-3.3-1.9
		c-3.5,0-3.7,1.9-5.3,4.8C9.1,36,8.9,38,7.5,39.5c-0.8,0.9-3.2,4.5-4.9,5.1l0,0l0,0v25.9v0.1v-0.1c0.1-0.3,0.2-0.7,0.3-0.9
		c0.7-1.4,2.2-2.7,3.1-4.1c0.5-0.8,1-1.5,1.3-2.4c0.3-0.7,0.4-1.8,0.8-2.4c0.5-0.7,1.2-1,1.9-1.1c1.2-0.2,2.2,1.7,3.7,2.4
		c0.7,0.3,3.6,1.3,4.5,1.5c1.5,0.3,3.1,0.7,4.5,0.9c0.8,0.1,1.5,0.3,2.4,0.3c0.7,0.1,3.5,0.1,3.7,0.3c-1.4,0.7-2.2,2.7-2.7,4.1
		c-0.5,1.5-0.9,3.1-1.6,4.5c-0.7,1.6-2.3,2.3-2.1,4.1c0.1,0.7,0.2,1.5,0.1,2.3c-0.1,0.9-0.5,1.5-0.7,2.3c-0.3,1.1-0.7,4.6-1.2,5.7
		l3.1-0.4l0,0c0.3-0.8,0.7-4.1,0.7-4.5c0.6-1.7,1.3-3.1,2.5-4.3c1.1-1.3,1.1-2.9,1.7-4.4c0.7-1.6,1.7-2.9,2.6-4.4
		c1.7-2.7,2.7-6.1,6.3-6.9c0.4-0.1,2.5,1.5,3.5,2.4c1.1,1.1,2.3,2.3,3,3.7c1.4,2.8,2.5,6.9,3,9.1c0.3,1.3,0.5,1.3,1.3,2.4
		c0.4,0.5,1.2,1.9,1.5,2.5c0.3,0.6,0.7,1.9,1,2.7c0.2,0.4,0.7,1.7,1.1,2.8l2.9-0.1h0.1l0,0v-0.1C53.3,85.8,52.4,82.6,51.9,79.4z"/>
	<path fill="#494545" d="M50.1,62.8L50.1,62.8C50.1,62.6,50.1,62.6,50.1,62.8z"/>
	<g>
		<g>
			
				<linearGradient id="SVGID_1_" gradientUnits="userSpaceOnUse" x1="-228.4" y1="1273.2056" x2="-228.4" y2="1273.3619" gradientTransform="matrix(0.6667 0 0 0.6667 202.3334 -786.1467)">
				<stop  offset="0" style="stop-color:#F29104"/>
				<stop  offset="1" style="stop-color:#EC6813"/>
			</linearGradient>
			<path fill="url(#SVGID_1_)" d="M50.1,62.8L50.1,62.8C50.1,62.6,50.1,62.6,50.1,62.8z"/>
			<g>
				
					<linearGradient id="SVGID_2_" gradientUnits="userSpaceOnUse" x1="-246.9" y1="1274.2787" x2="-246.9" y2="1313.141" gradientTransform="matrix(0.6667 0 0 0.6667 202.3334 -786.1467)">
					<stop  offset="0" style="stop-color:#F29104"/>
					<stop  offset="1" style="stop-color:#EC6813"/>
				</linearGradient>
				<path fill="url(#SVGID_2_)" d="M50.7,86.1c-0.3-0.7-0.7-2.1-1-2.7c-0.3-0.5-1.1-2-1.5-2.5c-0.9-1-1.1-1.1-1.3-2.4
					c-0.5-2.3-1.6-6.3-3-9.1c-0.7-1.5-1.9-2.7-3-3.7c-0.9-0.9-3.1-2.5-3.5-2.4c-3.5,0.7-4.6,4.1-6.3,6.9c-0.9,1.5-1.9,2.8-2.6,4.4
					c-0.7,1.5-0.6,3.1-1.7,4.4c-1.1,1.3-1.9,2.7-2.5,4.3c-0.1,0.3-0.4,3.7-0.7,4.5l0,0l5.2-0.3c4.9,0.3,3.5,2.2,11,1.8l11.9-0.4l0,0
					C51.5,87.8,50.9,86.5,50.7,86.1z"/>
			</g>
			<g>
				<g>
					
						<linearGradient id="SVGID_3_" gradientUnits="userSpaceOnUse" x1="-228.4501" y1="1189.3817" x2="-228.45" y2="1313.1843" gradientTransform="matrix(0.6667 0 0 0.6667 202.3334 -786.1467)">
						<stop  offset="0" style="stop-color:#F29104"/>
						<stop  offset="1" style="stop-color:#EC6813"/>
					</linearGradient>
					<path fill="url(#SVGID_3_)" d="M85.4,6.8H14.6C8,6.8,2.7,12.1,2.7,18.7v26l0,0c1.7-0.6,4.1-4.3,4.9-5.1C8.9,38,9.2,36,9.9,34.8
						c1.5-2.8,1.8-4.8,5.3-4.8c1.6,0,2.3,0.4,3.3,1.9c0.7,1,2.1,2.9,2.7,4.2c0.7,1.5,1.9,3.4,2.4,3.8c0.4,0.3,0.7,0.5,1.1,0.7
						c0.5,0.2,1-0.2,1.4-0.5c0.5-0.4,0.7-1.1,1.1-2.2c0.7-1.5,1.3-3.3,1.7-3.9c0.7-1.1,0.9-2.4,1.7-3c1.1-0.9,2.5-1,2.9-1.1
						c2.2-0.5,3.2,1.1,4.3,2c0.7,0.7,1.7,1.9,2.4,3.6c0.5,1.3,1.2,2.6,1.5,3.3c0.3,0.7,0.9,1.9,1.3,3.4c0.4,1.3,1.3,2.3,1.7,2.9
						c0,0,0.6,1.6,4.1,3.1c0.7,0.3,2.3,0.9,3.2,1.1c1.5,0.5,3,0.5,4.9,0.3c1.3,0,2.1-1.9,2.7-3.5c0.3-0.9,0.7-3.5,0.9-4.3
						c0.2-0.7-0.3-1.3,0.1-1.9c0.5-0.7,0.9-0.8,1.1-1.7c0.7-2.1,4.4-2.1,6.5-2.1c1.8,0,1.5,1.7,4.5,1.1c1.7-0.3,3.4,0.2,5.2,0.7
						c1.5,0.4,3,0.9,3.9,1.9c0.5,0.7,1.9,3.9,0.5,4.1c0.1,0.1,0.3,0.5,0.5,0.6c-0.3,1.3-1.7,0.3-2.5,0.2c-1-0.2-1.7,0-2.7,0.5
						c-1.7,0.7-4.2,0.7-5.7,1.9c-1.3,1.1-1.3,3.4-1.9,4.7c0,0-1.7,4.2-5.2,6.8c-0.9,0.7-2.7,2.3-6.6,2.9c-1.7,0.3-3.4,0.3-5.2,0.2
						c-0.9-0.1-1.7-0.1-2.6-0.1c-0.5,0-2.3-0.1-2.2,0.1l-0.2,0.5c0,0.1,0.1,0.5,0.1,0.7c0.1,0.4,0.1,0.7,0.1,1.1
						c0,0.7-0.1,1.5,0,2.3c0.1,1.5,0.7,2.9,0.7,4.5c0.1,1.7,0.9,3.6,1.8,5c0.3,0.5,0.8,0.6,1,1.3c0.3,0.7,0,1.6,0.1,2.4
						c0.5,3.1,1.4,6.5,2.8,9.3v0.1l0,0c1.7-0.3,3.5-0.9,5.8-1.3c4.2-0.6,10-0.3,13.7-0.7c9.5-0.9,14.6,3.9,23.1,1.9V18.7
						C97.3,12.1,92,6.8,85.4,6.8z M50.1,62.8C50.1,62.6,50.1,62.6,50.1,62.8L50.1,62.8z"/>
				</g>
			</g>
			<g>
				
					<linearGradient id="SVGID_4_" gradientUnits="userSpaceOnUse" x1="-279.85" y1="1268.3978" x2="-279.85" y2="1312.2461" gradientTransform="matrix(0.6667 0 0 0.6667 202.3334 -786.1467)">
					<stop  offset="0" style="stop-color:#F29104"/>
					<stop  offset="1" style="stop-color:#EC6813"/>
				</linearGradient>
				<path fill="url(#SVGID_4_)" d="M24.5,73.7c0.7-1.5,1.1-3.1,1.6-4.5c0.5-1.4,1.3-3.4,2.7-4.1c-0.2-0.2-2.9-0.3-3.7-0.3
					c-0.8-0.1-1.6-0.2-2.4-0.3c-1.5-0.3-3.1-0.6-4.5-0.9c-0.9-0.2-3.9-1.3-4.5-1.5c-1.5-0.7-2.5-2.6-3.7-2.4
					c-0.7,0.1-1.5,0.4-1.9,1.1c-0.4,0.6-0.5,1.7-0.8,2.4c-0.3,0.8-0.9,1.6-1.3,2.4c-0.9,1.4-2.5,2.7-3.1,4.1c-0.1,0.3-0.2,0.7-0.3,1
					v0.1v5.3v9.3v1.3c0.8,0.1,1.6,0.3,2.5,0.5c6.7,1.8,8.3,1.9,14.8,1.2l0.6-0.1l0,0c0.5-1.1,0.9-4.6,1.2-5.7
					c0.3-0.9,0.6-1.5,0.7-2.3c0.1-0.8,0-1.6-0.1-2.3C22.3,76,23.8,75.3,24.5,73.7z"/>
			</g>
		</g>
	</g>
</g>
</svg>
